<svg width="97" height="97" viewBox="0 0 97 97" fill="none" xmlns="http://www.w3.org/2000/svg">
<path d="M90.9381 64.0073C90.2748 63.7787 90.1009 63.2803 90.1034 62.7836L90.0884 62.7784C89.7956 63.3099 89.2148 63.6494 88.4083 63.3714C87.3682 63.013 87.0799 62.1125 87.4643 60.997L88.306 58.555L93.695 60.4125L92.8974 62.7263C92.5156 63.8342 91.8049 64.306 90.9381 64.0073ZM91.1549 60.5404L90.6769 61.9272C90.4561 62.5679 90.6292 62.8974 91.104 63.061C91.5789 63.2247 91.944 63.0217 92.1284 62.4865L92.6246 61.047L91.1549 60.5404ZM90.4841 60.3092L88.7581 59.7143L88.249 61.1916C87.984 61.9603 88.2652 62.3187 88.7702 62.4927C89.3204 62.6824 89.7463 62.4497 89.9412 61.8844L90.4841 60.3092Z" fill="white"/>
<path d="M86.3865 71.2549L84.8372 73.5659L84.1618 73.1131L85.7111 70.8021L84.2741 69.8388L82.4629 72.5405L81.7941 72.0921L84.1336 68.6025L88.8682 71.7765L86.5731 75.2L85.9043 74.7516L87.6711 72.1162L86.3865 71.2549Z" fill="white"/>
<path d="M78.6379 80.6692C77.5219 81.2514 76.6576 81.6725 75.8065 80.7224C75.2001 80.0454 75.2055 79.0238 76.2744 78.0664C77.3136 77.1356 78.5874 76.9685 79.4906 77.8932L78.784 78.5262C78.2643 78.0178 77.577 77.9913 76.8169 78.6721C76.1875 79.2359 76.194 79.7331 76.4866 80.0597C76.9387 80.5644 77.386 80.335 78.4095 79.7928C79.2235 79.3634 80.1707 78.9751 80.8941 79.7827C81.5696 80.5368 81.3654 81.4797 80.439 82.3095C79.5067 83.1446 78.3936 83.264 77.5523 82.4443L78.2589 81.8113C78.7658 82.2457 79.3086 82.2304 79.8965 81.7038C80.4012 81.2517 80.5338 80.7904 80.2519 80.4757C79.837 80.0125 79.3647 80.2857 78.6379 80.6692Z" fill="white"/>
<path d="M68.7043 83.69L71.0448 87.9891L72.6482 87.1162L73.0332 87.8233L69.0002 90.019L68.6152 89.3118L70.2116 88.4427L67.8711 84.1437L68.7043 83.69Z" fill="white"/>
<path d="M51.3501 92.5449C51.4938 93.1102 51.9164 93.7757 52.9661 93.7017C54.1908 93.6153 54.6035 92.5552 54.5244 91.434C54.4448 90.3047 53.8873 89.3131 52.6627 89.3994C51.605 89.474 51.2482 90.1945 51.2334 90.8908L50.2871 90.9576C50.324 89.6683 51.1343 88.6921 52.5816 88.59C54.2198 88.4744 55.3417 89.6501 55.4628 91.3678C55.5834 93.0775 54.6376 94.399 52.9994 94.5145C51.5601 94.616 50.6208 93.7632 50.4037 92.6117L51.3501 92.5449Z" fill="white"/>
<path d="M38.7188 89.6325C38.9733 88.4152 39.789 87.7468 41.3419 88.0715C42.8948 88.3961 43.3744 89.3353 43.1199 90.5526L42.3515 94.228L41.4229 94.0339L42.1913 90.3585C42.3675 89.5157 42.026 89.0453 41.1755 88.8674C40.3171 88.688 39.8158 88.9822 39.6396 89.825L38.8712 93.5004L37.9504 93.3079L38.7188 89.6325Z" fill="white"/>
<path d="M29.4949 87.8207C28.5439 86.9961 27.8351 86.3464 28.4069 85.2062C28.8142 84.3938 29.7665 84.024 31.0493 84.6672C32.2964 85.2925 32.9191 86.4163 32.3901 87.5958L31.5421 87.1706C31.8245 86.5006 31.597 85.8515 30.6848 85.3941C29.9294 85.0154 29.4693 85.2038 29.2728 85.5958C28.969 86.2015 29.3466 86.5335 30.2264 87.2868C30.9245 87.8865 31.6331 88.6253 31.1472 89.5945C30.6934 90.4996 29.7413 90.6554 28.6296 90.0979C27.5107 89.537 26.9913 88.5452 27.4453 87.4619L28.2933 87.8871C28.0751 88.5179 28.2885 89.0173 28.994 89.371C29.5998 89.6748 30.0776 89.629 30.2669 89.2513C30.5457 88.6954 30.1182 88.3562 29.4949 87.8207Z" fill="white"/>
<path d="M23.0406 79.6876L19.8997 83.4419L21.2999 84.6133L20.7832 85.2309L17.2613 82.2843L17.7779 81.6668L19.172 82.8331L22.3129 79.0788L23.0406 79.6876Z" fill="white"/>
<path d="M16.339 72.5357C17.3581 73.9237 16.9797 75.5367 15.598 76.5511C14.2164 77.5654 12.5706 77.4386 11.5515 76.0505C10.5372 74.6689 10.9044 73.0542 12.2861 72.0399C13.6677 71.0255 15.3247 71.154 16.339 72.5357ZM15.6835 73.0169C14.9098 71.963 13.7793 72.1205 12.8475 72.8046C11.9221 73.484 11.4332 74.5154 12.207 75.5693C12.9807 76.6232 14.1159 76.4721 15.0413 75.7928C15.9731 75.1087 16.4573 74.0708 15.6835 73.0169Z" fill="white"/>
<path d="M11.7159 65.5363L6.3234 67.3835L5.92554 66.222L9.55688 63.2927L9.55172 63.2776L4.88956 63.1977L4.4917 62.0363L9.88416 60.1891L10.1838 61.0639L6.09613 62.4642L6.1013 62.4793L10.6773 62.5044L10.9227 63.2209L7.32329 66.0466L7.32846 66.0617L11.4162 64.6614L11.7159 65.5363Z" fill="white"/>
<path d="M4.82315 51.442L4.7239 48.6615L5.53654 48.6325L5.63579 51.413L7.36464 51.3513L7.24861 48.1007L8.05328 48.072L8.20315 52.2706L2.50671 52.474L2.35969 48.355L3.16436 48.3263L3.27754 51.4972L4.82315 51.442Z" fill="white"/>
<path d="M8.47888 42.1375L2.88821 41.0261L3.36229 38.6413C3.59078 37.4919 4.32488 36.8657 5.34136 37.0677C6.12327 37.2232 6.49751 37.7121 6.52644 38.3844L6.54207 38.3875C7.04094 37.1455 9.13703 38.0499 9.28992 37.7714L9.34466 37.7823L9.15036 38.7597C8.8645 38.9711 7.04513 38.0648 6.77778 39.4097L6.50577 40.778L8.66385 41.207L8.47888 42.1375ZM3.86291 40.2527L5.70822 40.6195L5.95847 39.3606C6.07194 38.7898 6.0806 38.1738 5.26742 38.0122C4.46205 37.8521 4.22663 38.423 4.11316 38.9938L3.86291 40.2527Z" fill="white"/>
<path d="M11.6218 24.3928L13.228 22.121L13.892 22.5905L12.2857 24.8622L13.6982 25.861L15.5761 23.2052L16.2335 23.67L13.808 27.1005L9.1538 23.8097L11.5333 20.4443L12.1907 20.9092L10.3589 23.4999L11.6218 24.3928Z" fill="white"/>
<path d="M19.9466 15.3794L16.7956 14.3571L17.5902 13.7042L19.9241 14.5106L19.9303 14.5055L19.5983 12.0544L20.3929 11.4016L20.7743 14.6788L24.1222 15.7148L23.266 16.4182L20.8007 15.565L20.7946 15.5701L21.1593 18.149L20.3031 18.8525L19.9466 15.3794Z" fill="white"/>
<path d="M29.4344 12.1908L27.1092 6.98648L29.322 5.99789C30.3191 5.55237 31.2479 5.69627 31.7356 6.78808C32.2234 7.87988 31.7142 8.67494 30.717 9.12046L29.3705 9.72206L30.3005 11.8038L29.4344 12.1908ZM28.3038 7.33465L29.0388 8.97964L30.3489 8.39429C30.9312 8.13413 31.1264 7.75007 30.8695 7.17506C30.6158 6.60732 30.1963 6.48914 29.614 6.7493L28.3038 7.33465Z" fill="white"/>
<path d="M40.0203 4.91659L42.7663 4.4692L42.8971 5.27178L40.151 5.71916L40.4292 7.4266L43.6395 6.90358L43.769 7.69829L39.6223 8.37385L38.7058 2.74796L42.7737 2.08522L42.9032 2.87992L39.7716 3.39012L40.0203 4.91659Z" fill="white"/>
<path d="M49.7094 7.37572L50.1104 1.68978L52.5359 1.86084C53.7049 1.94328 54.4183 2.59299 54.3454 3.6268C54.2893 4.42203 53.8512 4.85467 53.1879 4.96772L53.1868 4.98363C54.4815 5.32269 53.8473 7.5157 54.1428 7.63245L54.1389 7.68811L53.1448 7.61801C52.8992 7.36093 53.57 5.44222 52.2022 5.34576L50.8105 5.24761L50.6557 7.44246L49.7094 7.37572ZM51.0001 2.55971L50.8677 4.43646L52.1481 4.52676C52.7286 4.5677 53.3408 4.499 53.3991 3.67195C53.4569 2.85286 52.8609 2.69095 52.2804 2.65L51.0001 2.55971Z" fill="white"/>
<path d="M59.773 3.01702L60.6903 3.25882L59.2375 8.77063L58.3202 8.52884L59.773 3.01702Z" fill="white"/>
<path d="M66.9496 7.93237L69.4391 9.17471L69.076 9.9023L66.5865 8.65996L65.814 10.2079L68.7244 11.6602L68.3649 12.3807L64.6056 10.5047L67.1508 5.40446L70.8387 7.24483L70.4792 7.96528L67.6402 6.54852L66.9496 7.93237Z" fill="white"/>
<path d="M73.4441 15.5648L77.2092 11.2853L78.0052 11.9857L77.1047 16.8954L77.1167 16.906L79.9445 13.6918L80.6568 14.3185L76.8916 18.598L76.1016 17.9029L76.9856 12.9998L76.9736 12.9893L74.1563 16.1915L73.4441 15.5648Z" fill="white"/>
<path d="M86.4872 24.5002C86.9099 24.0983 87.2835 23.4041 86.7054 22.5249C86.0308 21.499 84.9044 21.6577 83.9652 22.2753C83.0193 22.8973 82.4272 23.8686 83.1017 24.8944C83.6843 25.7804 84.4872 25.739 85.1017 25.4113L85.6229 26.2039C84.4804 26.8025 83.2326 26.5735 82.4354 25.3612C81.5332 23.989 82.0095 22.4354 83.4483 21.4893C84.8805 20.5476 86.4957 20.7259 87.3979 22.0981C88.1907 23.3037 87.9065 24.5402 87.0085 25.2929L86.4872 24.5002Z" fill="white"/>
<path d="M90.0639 32.5155L90.947 35.1539L90.1759 35.412L89.2927 32.7736L87.6523 33.3227L88.6847 36.4071L87.9211 36.6627L86.5876 32.6787L91.9929 30.8694L93.3011 34.7779L92.5376 35.0334L91.5305 32.0246L90.0639 32.5155Z" fill="white"/>
</svg>
