<svg width="118" height="142" viewBox="0 0 118 142" fill="none" xmlns="http://www.w3.org/2000/svg">
<path d="M58.9474 57.5637L61.8832 66.5992H71.3837L63.6977 72.1835L66.6335 81.219L58.9474 75.6347L51.2613 81.219L54.1972 72.1835L46.5111 66.5992H56.0116L58.9474 57.5637Z" fill="#D9D9D9"/>
<path d="M2.28634 63.3727L8.20866 62.9666L8.15754 62.2211L2.23522 62.6273L2.28634 63.3727Z" fill="white"/>
<path d="M8.01223 59.9712L8.03267 59.2243L3.16098 59.0909L3.16143 59.0743L8.11424 56.2448L8.13923 55.3319L2.20522 55.1695L2.18477 55.9164L7.07307 56.0502L7.07261 56.0668L2.10321 58.8958L2.07822 59.8088L8.01223 59.9712Z" fill="white"/>
<path d="M8.32885 53.262L8.66963 51.1389C8.92884 49.524 8.04696 48.365 6.16153 48.0624C4.27611 47.7597 3.06762 48.5832 2.80842 50.1981L2.46764 52.3213L8.32885 53.262ZM3.24186 51.6888L3.46422 50.3034C3.70369 48.8114 4.89547 48.6159 6.04312 48.8001C7.19077 48.9843 8.2533 49.5417 8.01383 51.0336L7.79147 52.419L3.24186 51.6888Z" fill="white"/>
<path d="M8.90342 41.8233L5.10732 40.695L4.89441 41.4112L8.69051 42.5396C9.61367 42.814 9.9174 43.424 9.62406 44.4108C9.33073 45.3976 8.74313 45.7426 7.81997 45.4682L4.02387 44.3398L3.81097 45.0561L7.60706 46.1845C8.76897 46.5299 9.80889 46.1201 10.2607 44.6C10.7126 43.08 10.0653 42.1687 8.90342 41.8233Z" fill="white"/>
<path d="M6.07969 38.0871L11.5269 40.4465L13.0613 36.9039L12.4518 36.6399L11.2144 39.4968L6.37667 37.4015L6.07969 38.0871Z" fill="white"/>
<path d="M12.4792 29.4643L12.8599 28.8213C11.7825 28.4247 10.7091 28.7059 9.94359 29.999C9.10615 31.4136 9.65391 33.0307 11.1899 33.9401C12.7331 34.8536 14.3298 34.699 15.2095 33.213C15.6748 32.4271 15.6724 31.7792 15.365 31.0762L15.3734 31.0619L16.2219 31.2748L16.4756 30.8461L13.818 29.2728L12.4518 31.5804L13.0234 31.9187L14.0088 30.2541C14.9662 30.8209 15.1794 31.9601 14.638 32.8746C13.8767 34.1606 12.5351 33.8681 11.5706 33.2971C10.6133 32.7303 9.79612 31.5519 10.5151 30.3374C10.9719 29.5658 11.6617 29.1829 12.4792 29.4643Z" fill="white"/>
<path d="M15.4164 26.5228L13.9456 25.3711L16.0698 22.6583L15.5469 22.2488L12.962 25.5499L17.6358 29.2097L20.2821 25.8302L19.7592 25.4207L17.5736 28.2119L15.9393 26.9323L17.8179 24.5332L17.2949 24.1238L15.4164 26.5228Z" fill="white"/>
<path d="M19.4506 18.1324L23.5434 22.4322L24.0846 21.917L19.9918 17.6172L19.4506 18.1324Z" fill="white"/>
<path d="M25.7237 20.3689L26.3117 19.9079L23.3049 16.0725L23.3179 16.0623L28.6574 18.069L29.3761 17.5055L25.7136 12.8338L25.1255 13.2948L28.1426 17.1433L28.1296 17.1535L22.7799 15.1338L22.0612 15.6972L25.7237 20.3689Z" fill="white"/>
<path d="M34.9497 14.1017L35.6113 13.7545L33.1619 9.08607L34.9117 8.16801L34.6031 7.57986L30.4419 9.76314L30.7505 10.3513L32.5002 9.43324L34.9497 14.1017Z" fill="white"/>
<path d="M36.9057 6.54661L38.9825 12.1077L39.6825 11.8463L38.7211 9.27187L41.6922 8.16233L42.6536 10.7368L43.3536 10.4754L41.2768 4.91425L40.5768 5.17566L41.4598 7.54011L38.4887 8.64965L37.6057 6.2852L36.9057 6.54661Z" fill="white"/>
<path d="M45.2744 6.40991L44.8456 4.59175L48.1991 3.80083L48.0466 3.15438L43.9658 4.11681L45.3285 9.89453L49.5062 8.90922L49.3538 8.26277L45.9033 9.07655L45.4268 7.05637L48.3925 6.35693L48.24 5.71048L45.2744 6.40991Z" fill="white"/>
<path d="M58.4631 6.0469L58.2576 2.09198L57.5114 2.13075L57.7169 6.08567C57.7668 7.04746 57.2935 7.53761 56.2654 7.59103C55.2373 7.64446 54.7157 7.206 54.6657 6.24421L54.4602 2.28929L53.714 2.32806L53.9195 6.28298C53.9824 7.49351 54.7162 8.33662 56.2998 8.25433C57.8835 8.17205 58.526 7.25742 58.4631 6.0469Z" fill="white"/>
<path d="M61.0405 2.13654L60.6378 8.0591L64.4895 8.32099L64.5346 7.65832L61.4283 7.44712L61.786 2.18723L61.0405 2.13654Z" fill="white"/>
<path d="M67.8861 8.84369L68.6208 8.98018L69.5838 3.79684L71.5265 4.15778L71.6478 3.50476L67.0277 2.6464L66.9064 3.29941L68.8491 3.66035L67.8861 8.84369Z" fill="white"/>
<path d="M73.9281 4.11933L72.3245 9.83485L73.0439 10.0367L74.6476 4.32119L73.9281 4.11933Z" fill="white"/>
<path d="M75.2126 10.6201L75.9062 10.8982L77.7231 6.36709L77.7385 6.37327L77.5861 11.5718L78.2025 11.819L81.684 7.95538L81.6994 7.96156L79.8824 12.4927L80.576 12.7708L82.7854 7.26101L81.8375 6.88093L78.2759 10.7661L78.2605 10.7599L78.3699 5.49041L77.422 5.11033L75.2126 10.6201Z" fill="white"/>
<path d="M86.2374 14.1852L85.9512 15.7345L86.6208 16.1189L87.6825 9.88358L86.9625 9.47024L82.1062 13.5272L82.7758 13.9116L83.9693 12.8832L86.2374 14.1852ZM84.516 12.4312L86.9722 10.2704L86.9866 10.2787L86.3593 13.4893L84.516 12.4312Z" fill="white"/>
<path d="M89.2062 17.9775L89.8042 18.4254L92.9651 14.206L94.5465 15.3907L94.9447 14.8591L91.1838 12.0417L90.7856 12.5733L92.367 13.758L89.2062 17.9775Z" fill="white"/>
<path d="M95.6283 18.8287L96.9189 17.4782L99.4099 19.8587L99.8688 19.3785L96.8376 16.4818L92.7363 20.7734L95.8395 23.739L96.2984 23.2588L93.7354 20.8095L95.1694 19.3089L97.3723 21.4141L97.8311 20.9339L95.6283 18.8287Z" fill="white"/>
<path d="M103.672 23.7383L98.8979 27.266L101.192 30.3709L101.726 29.9762L99.8761 27.4722L104.116 24.3392L103.672 23.7383Z" fill="white"/>
<path d="M106.118 34.7937L109.561 32.8378L109.192 32.188L105.749 34.144C104.911 34.6196 104.261 34.4161 103.753 33.5209C103.244 32.6257 103.402 31.9629 104.24 31.4873L107.683 29.5314L107.314 28.8817L103.871 30.8376C102.817 31.4362 102.392 32.4701 103.175 33.8489C103.958 35.2278 105.064 35.3923 106.118 34.7937Z" fill="white"/>
<path d="M108.706 37.9379L105.131 37.2262L105.48 38.0699L108.37 38.5171L108.374 38.5248L106.65 40.8926L106.999 41.7363L109.039 38.6985L112.429 39.3339L112.112 38.5668L109.355 38.118L109.352 38.1103L110.987 35.8516L110.669 35.0845L108.706 37.9379Z" fill="white"/>
<path d="M110.618 47.0773L114.436 46.0249L114.237 45.3046L110.419 46.3569C109.491 46.6129 108.91 46.2562 108.636 45.2637C108.363 44.2712 108.679 43.6674 109.607 43.4115L113.425 42.3591L113.227 41.6388L109.409 42.6912C108.24 43.0133 107.575 43.9115 107.996 45.4402C108.418 46.9689 109.449 47.3994 110.618 47.0773Z" fill="white"/>
<path d="M109.132 49.6266L109.239 50.3662L111.613 50.0238L111.856 51.7084C112.071 53.1958 109.862 52.9438 109.652 53.2341L109.767 54.0312L109.816 54.0241C109.871 53.7058 112.249 53.8496 112.315 52.5063L112.332 52.5039C112.59 53.1294 113.116 53.4645 113.962 53.3425C115.006 53.192 115.518 52.3213 115.351 51.1627L115.007 48.7796L109.132 49.6266ZM114.457 49.614L114.669 51.0849C114.756 51.693 114.793 52.4679 113.774 52.6148C112.755 52.7617 112.571 52.0081 112.483 51.4L112.271 49.9291L114.457 49.614Z" fill="white"/>
<path d="M115.834 55.2995L112.373 57.5256L109.94 57.5728L109.955 58.3199L112.387 58.2727L115.932 60.3713L115.916 59.5662L112.978 57.8959L112.977 57.8793L115.849 56.1047L115.834 55.2995Z" fill="white"/>
<path d="M115.714 78.0084L109.791 78.4145L109.842 79.16L115.765 78.7538L115.714 78.0084Z" fill="white"/>
<path d="M109.988 81.4099L109.967 82.1568L114.839 82.2902L114.839 82.3068L109.886 85.1363L109.861 86.0492L115.795 86.2116L115.815 85.4647L110.927 85.3309L110.927 85.3143L115.897 82.4853L115.922 81.5723L109.988 81.4099Z" fill="white"/>
<path d="M109.671 88.1191L109.33 90.2422C109.071 91.8571 109.953 93.0161 111.838 93.3187C113.724 93.6214 114.932 92.7979 115.192 91.183L115.532 89.0598L109.671 88.1191ZM114.758 89.6923L114.536 91.0777C114.296 92.5697 113.105 92.7652 111.957 92.581C110.809 92.3968 109.747 91.8394 109.986 90.3475L110.209 88.9621L114.758 89.6923Z" fill="white"/>
<path d="M109.097 99.5578L112.893 100.686L113.106 99.9699L109.309 98.8415C108.386 98.5671 108.083 97.9571 108.376 96.9703C108.669 95.9835 109.257 95.6385 110.18 95.9129L113.976 97.0413L114.189 96.325L110.393 95.1966C109.231 94.8512 108.191 95.261 107.739 96.7811C107.287 98.3011 107.935 99.2124 109.097 99.5578Z" fill="white"/>
<path d="M111.92 103.294L106.473 100.935L104.939 104.477L105.548 104.741L106.786 101.884L111.623 103.98L111.92 103.294Z" fill="white"/>
<path d="M105.521 111.917L105.14 112.56C106.217 112.956 107.291 112.675 108.056 111.382C108.894 109.968 108.346 108.35 106.81 107.441C105.267 106.527 103.67 106.682 102.79 108.168C102.325 108.954 102.328 109.602 102.635 110.305L102.627 110.319L101.778 110.106L101.524 110.535L104.182 112.108L105.548 109.801L104.977 109.462L103.991 111.127C103.034 110.56 102.821 109.421 103.362 108.506C104.123 107.221 105.465 107.513 106.429 108.084C107.387 108.651 108.204 109.829 107.485 111.044C107.028 111.815 106.338 112.198 105.521 111.917Z" fill="white"/>
<path d="M102.584 114.858L104.054 116.01L101.93 118.723L102.453 119.132L105.038 115.831L100.364 112.171L97.7179 115.551L98.2408 115.96L100.426 113.169L102.061 114.449L100.182 116.848L100.705 117.257L102.584 114.858Z" fill="white"/>
<path d="M98.5494 123.249L94.4566 118.949L93.9154 119.464L98.0082 123.764L98.5494 123.249Z" fill="white"/>
<path d="M92.2763 121.012L91.6883 121.473L94.6951 125.309L94.6821 125.319L89.3426 123.312L88.6239 123.876L92.2864 128.547L92.8745 128.086L89.8574 124.238L89.8704 124.228L95.2201 126.247L95.9388 125.684L92.2763 121.012Z" fill="white"/>
<path d="M83.0503 127.279L82.3887 127.627L84.8381 132.295L83.0883 133.213L83.3969 133.801L87.5581 131.618L87.2495 131.03L85.4998 131.948L83.0503 127.279Z" fill="white"/>
<path d="M81.0943 134.834L79.0175 129.273L78.3175 129.535L79.2789 132.109L76.3078 133.219L75.3464 130.644L74.6464 130.906L76.7232 136.467L77.4232 136.205L76.5402 133.841L79.5113 132.731L80.3943 135.096L81.0943 134.834Z" fill="white"/>
<path d="M72.7256 134.971L73.1544 136.789L69.8009 137.58L69.9534 138.227L74.0342 137.264L72.6715 131.487L68.4938 132.472L68.6462 133.118L72.0967 132.305L72.5732 134.325L69.6075 135.024L69.76 135.671L72.7256 134.971Z" fill="white"/>
<path d="M59.5369 135.334L59.7424 139.289L60.4886 139.25L60.2831 135.295C60.2332 134.334 60.7065 133.843 61.7346 133.79C62.7627 133.737 63.2843 134.175 63.3343 135.137L63.5398 139.092L64.286 139.053L64.0805 135.098C64.0176 133.888 63.2838 133.044 61.7002 133.127C60.1165 133.209 59.474 134.124 59.5369 135.334Z" fill="white"/>
<path d="M56.9595 139.244L57.3622 133.322L53.5105 133.06L53.4654 133.723L56.5717 133.934L56.214 139.194L56.9595 139.244Z" fill="white"/>
<path d="M50.1139 132.537L49.3792 132.401L48.4162 137.584L46.4735 137.223L46.3522 137.876L50.9723 138.735L51.0936 138.082L49.1509 137.721L50.1139 132.537Z" fill="white"/>
<path d="M44.0719 137.262L45.6755 131.546L44.9561 131.344L43.3524 137.06L44.0719 137.262Z" fill="white"/>
<path d="M42.7874 130.761L42.0938 130.483L40.2769 135.014L40.2615 135.008L40.4139 129.809L39.7975 129.562L36.316 133.425L36.3006 133.419L38.1176 128.888L37.424 128.61L35.2146 134.12L36.1625 134.5L39.7241 130.615L39.7395 130.621L39.6301 135.89L40.578 136.271L42.7874 130.761Z" fill="white"/>
<path d="M31.7626 127.196L32.0488 125.646L31.3792 125.262L30.3175 131.497L31.0375 131.911L35.8938 127.854L35.2242 127.469L34.0307 128.498L31.7626 127.196ZM33.484 128.95L31.0278 131.11L31.0134 131.102L31.6407 127.892L33.484 128.95Z" fill="white"/>
<path d="M28.7938 123.404L28.1958 122.956L25.0349 127.175L23.4535 125.99L23.0553 126.522L26.8162 129.339L27.2144 128.808L25.633 127.623L28.7938 123.404Z" fill="white"/>
<path d="M22.3717 122.552L21.0811 123.903L18.5901 121.522L18.1312 122.002L21.1624 124.899L25.2637 120.607L22.1605 117.642L21.7016 118.122L24.2646 120.571L22.8306 122.072L20.6277 119.967L20.1689 120.447L22.3717 122.552Z" fill="white"/>
<path d="M14.3278 117.643L19.1021 114.115L16.8079 111.01L16.2737 111.405L18.1239 113.909L13.8837 117.042L14.3278 117.643Z" fill="white"/>
<path d="M11.8822 106.587L8.43863 108.543L8.80767 109.193L12.2512 107.237C13.0886 106.761 13.7389 106.965 14.2474 107.86C14.7559 108.755 14.5976 109.418 13.7602 109.894L10.3166 111.85L10.6857 112.499L14.1292 110.544C15.1832 109.945 15.6081 108.911 14.8249 107.532C14.0417 106.153 12.9362 105.989 11.8822 106.587Z" fill="white"/>
<path d="M9.29432 103.443L12.8693 104.155L12.5198 103.311L9.62951 102.864L9.62634 102.856L11.3504 100.489L11.0008 99.6448L8.96122 102.683L5.57064 102.047L5.88841 102.814L8.64454 103.263L8.64772 103.271L7.0133 105.53L7.33107 106.297L9.29432 103.443Z" fill="white"/>
<path d="M7.38235 94.3038L3.56448 95.3562L3.76304 96.0765L7.58091 95.0242C8.50936 94.7682 9.08996 95.1249 9.36353 96.1174C9.6371 97.1099 9.32126 97.7137 8.39281 97.9696L4.57494 99.022L4.7735 99.7423L8.59137 98.6899C9.75994 98.3678 10.4252 97.4697 10.0038 95.9409C9.58245 94.4122 8.55092 93.9817 7.38235 94.3038Z" fill="white"/>
<path d="M8.86807 91.7545L8.76145 91.0149L6.3866 91.3573L6.14375 89.6727C5.92933 88.1853 8.13821 88.4373 8.34801 88.147L8.2331 87.3499L8.18379 87.357C8.12901 87.6753 5.7512 87.5315 5.68481 88.8748L5.66838 88.8772C5.41044 88.2517 4.884 87.9166 4.0376 88.0386C2.99398 88.1891 2.48199 89.0598 2.64903 90.2184L2.99258 92.6015L8.86807 91.7545ZM3.54336 91.7671L3.3313 90.2962C3.24364 89.6881 3.20743 88.9132 4.22639 88.7663C5.24536 88.6194 5.42949 89.373 5.51715 89.9811L5.7292 91.452L3.54336 91.7671Z" fill="white"/>
<path d="M2.16626 86.0816L5.62739 83.8555L8.05954 83.8083L8.04506 83.0612L5.61291 83.1084L2.06795 81.0098L2.08356 81.8149L5.02233 83.4852L5.02265 83.5018L2.15066 85.2764L2.16626 86.0816Z" fill="white"/>
<rect x="18.2652" y="20.2027" width="81.3637" height="100.874" rx="40.6819" stroke="white" stroke-width="0.415121"/>
</svg>
